<?xml version="1.0" encoding="UTF-8" standalone="no"?>
<!DOCTYPE svg PUBLIC "-//W3C//DTD SVG 1.1//EN"
 "http://www.w3.org/Graphics/SVG/1.1/DTD/svg11.dtd">
<!-- Generated by graphviz version 13.1.0 (20250701.0955)
 -->
<!-- Title: fsm_state_graph Pages: 1 -->
<svg width="551pt" height="428pt"
 viewBox="0.00 0.00 551.00 428.00" xmlns="http://www.w3.org/2000/svg" xmlns:xlink="http://www.w3.org/1999/xlink">
<g id="graph0" class="graph" transform="scale(1 1) rotate(0) translate(4 424)">
<title>fsm_state_graph</title>
<polygon fill="white" stroke="none" points="-4,4 -4,-424 547,-424 547,4 -4,4"/>
<g id="clust1" class="cluster">
<title>cluster_transitions</title>
<polygon fill="none" stroke="black" points="8,-8 8,-381 297,-381 297,-8 8,-8"/>
<text xml:space="preserve" text-anchor="middle" x="152.5" y="-363.7" font-family="Times New Roman,serif" font-size="14.00">State transitions for Underscore Capitalizer</text>
</g>
<g id="clust2" class="cluster">
<title>cluster_names</title>
<polygon fill="none" stroke="black" points="305,-273.5 305,-412 535,-412 535,-273.5 305,-273.5"/>
<text xml:space="preserve" text-anchor="middle" x="420" y="-394.7" font-family="Times New Roman,serif" font-size="14.00">State names for Underscore Capitalizer</text>
</g>
<!-- 0 -->
<g id="node1" class="node">
<title>0</title>
<ellipse fill="none" stroke="black" cx="95" cy="-330.5" rx="27" ry="18"/>
<text xml:space="preserve" text-anchor="middle" x="95" y="-325.45" font-family="Times New Roman,serif" font-size="14.00">0</text>
</g>
<!-- 0&#45;&gt;0 -->
<g id="edge3" class="edge">
<title>0&#45;&gt;0</title>
<path fill="none" stroke="black" d="M114.43,-343.37C127.39,-346.99 140,-342.7 140,-330.5 140,-322.02 133.9,-317.36 125.83,-316.53"/>
<polygon fill="black" stroke="black" points="125.55,-313.04 115.93,-317.49 126.22,-320 125.55,-313.04"/>
<text xml:space="preserve" text-anchor="middle" x="175.62" y="-325.45" font-family="Times New Roman,serif" font-size="14.00">no_transition</text>
</g>
<!-- 1 -->
<g id="node2" class="node">
<title>1</title>
<ellipse fill="none" stroke="black" cx="63" cy="-211" rx="27" ry="18"/>
<text xml:space="preserve" text-anchor="middle" x="63" y="-205.95" font-family="Times New Roman,serif" font-size="14.00">1</text>
</g>
<!-- 0&#45;&gt;1 -->
<g id="edge1" class="edge">
<title>0&#45;&gt;1</title>
<path fill="none" stroke="black" d="M78.95,-315.63C66.12,-303.4 49.1,-284.32 41.75,-263.5 38.67,-254.78 40.86,-245.39 44.8,-237.04"/>
<polygon fill="black" stroke="black" points="47.78,-238.89 49.73,-228.48 41.71,-235.4 47.78,-238.89"/>
<text xml:space="preserve" text-anchor="middle" x="83.38" y="-250.2" font-family="Times New Roman,serif" font-size="14.00">to_check_word</text>
</g>
<!-- 3 -->
<g id="node3" class="node">
<title>3</title>
<ellipse fill="none" stroke="black" cx="71" cy="-34" rx="27" ry="18"/>
<text xml:space="preserve" text-anchor="middle" x="71" y="-28.95" font-family="Times New Roman,serif" font-size="14.00">3</text>
</g>
<!-- 0&#45;&gt;3 -->
<g id="edge2" class="edge">
<title>0&#45;&gt;3</title>
<path fill="none" stroke="black" d="M78.9,-315.62C65.53,-303.24 46.97,-283.95 36,-263.5 28.51,-249.54 29.02,-244.72 27,-229 19.25,-168.62 43.03,-99.42 58.6,-62.16"/>
<polygon fill="black" stroke="black" points="61.78,-63.63 62.52,-53.06 55.35,-60.86 61.78,-63.63"/>
<text xml:space="preserve" text-anchor="middle" x="39.77" y="-161.7" font-family="Times New Roman,serif" font-size="14.00">exit</text>
</g>
<!-- 1&#45;&gt;0 -->
<g id="edge4" class="edge">
<title>1&#45;&gt;0</title>
<path fill="none" stroke="black" d="M87.7,-219.13C101.28,-224.45 116.96,-233.23 125,-247 135.73,-265.37 125.83,-288.24 114.62,-305.24"/>
<polygon fill="black" stroke="black" points="111.86,-303.09 108.89,-313.26 117.55,-307.16 111.86,-303.09"/>
<text xml:space="preserve" text-anchor="middle" x="166.26" y="-250.2" font-family="Times New Roman,serif" font-size="14.00">to_find_word</text>
</g>
<!-- 1&#45;&gt;1 -->
<g id="edge7" class="edge">
<title>1&#45;&gt;1</title>
<path fill="none" stroke="black" d="M87.53,-219.17C98.51,-219.95 108,-217.22 108,-211 108,-207.11 104.29,-204.59 98.83,-203.43"/>
<polygon fill="black" stroke="black" points="99.22,-199.95 89.04,-202.91 98.84,-206.94 99.22,-199.95"/>
<text xml:space="preserve" text-anchor="middle" x="143.62" y="-205.95" font-family="Times New Roman,serif" font-size="14.00">no_transition</text>
</g>
<!-- 1&#45;&gt;3 -->
<g id="edge6" class="edge">
<title>1&#45;&gt;3</title>
<path fill="none" stroke="black" d="M63.8,-192.58C65.17,-162.44 68.01,-100.3 69.69,-63.7"/>
<polygon fill="black" stroke="black" points="73.18,-64.01 70.14,-53.86 66.18,-63.69 73.18,-64.01"/>
<text xml:space="preserve" text-anchor="middle" x="77.92" y="-117.45" font-family="Times New Roman,serif" font-size="14.00">exit</text>
</g>
<!-- 2 -->
<g id="node4" class="node">
<title>2</title>
<ellipse fill="none" stroke="black" cx="136" cy="-122.5" rx="27" ry="18"/>
<text xml:space="preserve" text-anchor="middle" x="136" y="-117.45" font-family="Times New Roman,serif" font-size="14.00">2</text>
</g>
<!-- 1&#45;&gt;2 -->
<g id="edge5" class="edge">
<title>1&#45;&gt;2</title>
<path fill="none" stroke="black" d="M75.72,-194.93C86.85,-181.74 103.21,-162.36 116.08,-147.11"/>
<polygon fill="black" stroke="black" points="118.43,-149.74 122.21,-139.84 113.08,-145.23 118.43,-149.74"/>
<text xml:space="preserve" text-anchor="middle" x="140.54" y="-161.7" font-family="Times New Roman,serif" font-size="14.00">to_capitalize</text>
</g>
<!-- 2&#45;&gt;0 -->
<g id="edge8" class="edge">
<title>2&#45;&gt;0</title>
<path fill="none" stroke="black" d="M155.32,-135.48C163.63,-141.49 172.83,-149.42 179,-158.5 229.19,-232.33 222.95,-235.59 207,-263.5 190.74,-291.96 156.87,-309.37 130.62,-319.11"/>
<polygon fill="black" stroke="black" points="129.64,-315.75 121.33,-322.33 131.93,-322.36 129.64,-315.75"/>
<text xml:space="preserve" text-anchor="middle" x="254.55" y="-205.95" font-family="Times New Roman,serif" font-size="14.00">to_find_word</text>
</g>
<!-- 2&#45;&gt;3 -->
<g id="edge9" class="edge">
<title>2&#45;&gt;3</title>
<path fill="none" stroke="black" d="M124.38,-106.04C114.73,-93.2 100.83,-74.7 89.64,-59.8"/>
<polygon fill="black" stroke="black" points="92.45,-57.72 83.65,-51.83 86.86,-61.93 92.45,-57.72"/>
<text xml:space="preserve" text-anchor="middle" x="119.45" y="-73.2" font-family="Times New Roman,serif" font-size="14.00">exit</text>
</g>
<!-- 2&#45;&gt;2 -->
<g id="edge10" class="edge">
<title>2&#45;&gt;2</title>
<path fill="none" stroke="black" d="M160.53,-130.67C171.51,-131.45 181,-128.72 181,-122.5 181,-118.61 177.29,-116.09 171.83,-114.93"/>
<polygon fill="black" stroke="black" points="172.22,-111.45 162.04,-114.41 171.84,-118.44 172.22,-111.45"/>
<text xml:space="preserve" text-anchor="middle" x="216.62" y="-117.45" font-family="Times New Roman,serif" font-size="14.00">no_transition</text>
</g>
<!-- all_node -->
<g id="node5" class="node">
<title>all_node</title>
<polygon fill="none" stroke="black" points="353.62,-353 353.62,-375.5 486.38,-375.5 486.38,-353 353.62,-353"/>
<text xml:space="preserve" text-anchor="start" x="356.62" y="-359.2" font-family="Times New Roman,serif" font-size="14.00"> 0 &#45;&#45; main.FindWord </text>
<polygon fill="none" stroke="black" points="353.62,-330.5 353.62,-353 486.38,-353 486.38,-330.5 353.62,-330.5"/>
<text xml:space="preserve" text-anchor="start" x="356.62" y="-336.7" font-family="Times New Roman,serif" font-size="14.00"> 1 &#45;&#45; main.CheckWord </text>
<polygon fill="none" stroke="black" points="353.62,-308 353.62,-330.5 486.38,-330.5 486.38,-308 353.62,-308"/>
<text xml:space="preserve" text-anchor="start" x="356.62" y="-314.2" font-family="Times New Roman,serif" font-size="14.00"> 2 &#45;&#45; main.Capitalize </text>
<polygon fill="none" stroke="black" points="353.62,-285.5 353.62,-308 486.38,-308 486.38,-285.5 353.62,-285.5"/>
<text xml:space="preserve" text-anchor="start" x="356.62" y="-291.7" font-family="Times New Roman,serif" font-size="14.00"> 3 &#45;&#45; polystate.Exit </text>
</g>
</g>
</svg>
