<?xml version="1.0" encoding="UTF-8" standalone="no"?>
<!DOCTYPE svg PUBLIC "-//W3C//DTD SVG 1.1//EN"
 "http://www.w3.org/Graphics/SVG/1.1/DTD/svg11.dtd">
<!-- Generated by graphviz version 13.1.0 (20250701.0955)
 -->
<!-- Title: fsm_state_graph Pages: 1 -->
<svg width="1236pt" height="1297pt"
 viewBox="0.00 0.00 1236.00 1297.00" xmlns="http://www.w3.org/2000/svg" xmlns:xlink="http://www.w3.org/1999/xlink">
<g id="graph0" class="graph" transform="scale(1 1) rotate(0) translate(4 1292.5)">
<title>fsm_state_graph</title>
<polygon fill="white" stroke="none" points="-4,4 -4,-1292.5 1232,-1292.5 1232,4 -4,4"/>
<g id="clust1" class="cluster">
<title>cluster_transitions</title>
<polygon fill="none" stroke="black" points="8,-8 8,-1080.75 408,-1080.75 408,-8 8,-8"/>
<text xml:space="preserve" text-anchor="middle" x="208" y="-1063.45" font-family="Times New Roman,serif" font-size="14.00">State transitions for Word Processor</text>
</g>
<g id="clust2" class="cluster">
<title>cluster_names</title>
<polygon fill="none" stroke="black" points="416,-804.5 416,-1280.5 1220,-1280.5 1220,-804.5 416,-804.5"/>
<text xml:space="preserve" text-anchor="middle" x="818" y="-1263.2" font-family="Times New Roman,serif" font-size="14.00">State names for Word Processor</text>
</g>
<!-- 0 -->
<g id="node1" class="node">
<title>0</title>
<ellipse fill="none" stroke="black" cx="373" cy="-1030.25" rx="27" ry="18"/>
<text xml:space="preserve" text-anchor="middle" x="373" y="-1025.2" font-family="Times New Roman,serif" font-size="14.00">0</text>
</g>
<!-- 1 -->
<g id="node2" class="node">
<title>1</title>
<ellipse fill="none" stroke="black" cx="252" cy="-742" rx="27" ry="18"/>
<text xml:space="preserve" text-anchor="middle" x="252" y="-736.95" font-family="Times New Roman,serif" font-size="14.00">1</text>
</g>
<!-- 0&#45;&gt;1 -->
<g id="edge1" class="edge">
<title>0&#45;&gt;1</title>
<path fill="none" stroke="black" d="M365.97,-1012.62C345.88,-965.09 288.07,-828.33 263.39,-769.94"/>
<polygon fill="black" stroke="black" points="266.75,-768.92 259.64,-761.07 260.31,-771.64 266.75,-768.92"/>
<text xml:space="preserve" text-anchor="middle" x="294.79" y="-781.2" font-family="Times New Roman,serif" font-size="14.00">to_inner</text>
</g>
<!-- 2 -->
<g id="node3" class="node">
<title>2</title>
<ellipse fill="none" stroke="black" cx="241" cy="-653.5" rx="27" ry="18"/>
<text xml:space="preserve" text-anchor="middle" x="241" y="-648.45" font-family="Times New Roman,serif" font-size="14.00">2</text>
</g>
<!-- 1&#45;&gt;2 -->
<g id="edge2" class="edge">
<title>1&#45;&gt;2</title>
<path fill="none" stroke="black" d="M249.83,-723.91C248.34,-712.26 246.35,-696.55 244.63,-683.02"/>
<polygon fill="black" stroke="black" points="248.13,-682.83 243.4,-673.35 241.19,-683.71 248.13,-682.83"/>
<text xml:space="preserve" text-anchor="middle" x="284.24" y="-692.7" font-family="Times New Roman,serif" font-size="14.00">to_find_word</text>
</g>
<!-- 10 -->
<g id="node4" class="node">
<title>10</title>
<ellipse fill="none" stroke="black" cx="134" cy="-653.5" rx="27" ry="18"/>
<text xml:space="preserve" text-anchor="middle" x="134" y="-648.45" font-family="Times New Roman,serif" font-size="14.00">10</text>
</g>
<!-- 1&#45;&gt;10 -->
<g id="edge3" class="edge">
<title>1&#45;&gt;10</title>
<path fill="none" stroke="black" d="M225.24,-739.19C201.32,-736.12 167.01,-727.92 146.75,-706 140.97,-699.75 137.7,-691.3 135.88,-683.05"/>
<polygon fill="black" stroke="black" points="139.36,-682.63 134.4,-673.27 132.44,-683.68 139.36,-682.63"/>
<text xml:space="preserve" text-anchor="middle" x="194.38" y="-692.7" font-family="Times New Roman,serif" font-size="14.00">to_no_words_left</text>
</g>
<!-- 2&#45;&gt;2 -->
<g id="edge5" class="edge">
<title>2&#45;&gt;2</title>
<path fill="none" stroke="black" d="M265.53,-661.67C276.51,-662.45 286,-659.72 286,-653.5 286,-649.61 282.29,-647.09 276.83,-645.93"/>
<polygon fill="black" stroke="black" points="277.22,-642.45 267.04,-645.41 276.84,-649.44 277.22,-642.45"/>
<text xml:space="preserve" text-anchor="middle" x="321.62" y="-648.45" font-family="Times New Roman,serif" font-size="14.00">no_transition</text>
</g>
<!-- 3 -->
<g id="node5" class="node">
<title>3</title>
<ellipse fill="none" stroke="black" cx="241" cy="-565" rx="27" ry="18"/>
<text xml:space="preserve" text-anchor="middle" x="241" y="-559.95" font-family="Times New Roman,serif" font-size="14.00">3</text>
</g>
<!-- 2&#45;&gt;3 -->
<g id="edge4" class="edge">
<title>2&#45;&gt;3</title>
<path fill="none" stroke="black" d="M241,-635.41C241,-623.76 241,-608.05 241,-594.52"/>
<polygon fill="black" stroke="black" points="244.5,-594.86 241,-584.86 237.5,-594.86 244.5,-594.86"/>
<text xml:space="preserve" text-anchor="middle" x="290.88" y="-604.2" font-family="Times New Roman,serif" font-size="14.00">to_find_word_end</text>
</g>
<!-- 11 -->
<g id="node12" class="node">
<title>11</title>
<ellipse fill="none" stroke="black" cx="134" cy="-565" rx="27" ry="18"/>
<text xml:space="preserve" text-anchor="middle" x="134" y="-559.95" font-family="Times New Roman,serif" font-size="14.00">11</text>
</g>
<!-- 10&#45;&gt;11 -->
<g id="edge19" class="edge">
<title>10&#45;&gt;11</title>
<path fill="none" stroke="black" d="M134,-635.41C134,-623.76 134,-608.05 134,-594.52"/>
<polygon fill="black" stroke="black" points="137.5,-594.86 134,-584.86 130.5,-594.86 137.5,-594.86"/>
<text xml:space="preserve" text-anchor="middle" x="156.5" y="-604.2" font-family="Times New Roman,serif" font-size="14.00">to_inner</text>
</g>
<!-- 3&#45;&gt;3 -->
<g id="edge7" class="edge">
<title>3&#45;&gt;3</title>
<path fill="none" stroke="black" d="M265.53,-573.17C276.51,-573.95 286,-571.22 286,-565 286,-561.11 282.29,-558.59 276.83,-557.43"/>
<polygon fill="black" stroke="black" points="277.22,-553.95 267.04,-556.91 276.84,-560.94 277.22,-553.95"/>
<text xml:space="preserve" text-anchor="middle" x="321.62" y="-559.95" font-family="Times New Roman,serif" font-size="14.00">no_transition</text>
</g>
<!-- 4 -->
<g id="node6" class="node">
<title>4</title>
<ellipse fill="none" stroke="black" cx="316" cy="-476.5" rx="27" ry="18"/>
<text xml:space="preserve" text-anchor="middle" x="316" y="-471.45" font-family="Times New Roman,serif" font-size="14.00">4</text>
</g>
<!-- 3&#45;&gt;4 -->
<g id="edge6" class="edge">
<title>3&#45;&gt;4</title>
<path fill="none" stroke="black" d="M254.06,-548.93C265.5,-535.74 282.31,-516.36 295.53,-501.11"/>
<polygon fill="black" stroke="black" points="297.94,-503.68 301.84,-493.83 292.65,-499.09 297.94,-503.68"/>
<text xml:space="preserve" text-anchor="middle" x="305.47" y="-515.7" font-family="Times New Roman,serif" font-size="14.00">to_next</text>
</g>
<!-- 5 -->
<g id="node7" class="node">
<title>5</title>
<ellipse fill="none" stroke="black" cx="244" cy="-388" rx="27" ry="18"/>
<text xml:space="preserve" text-anchor="middle" x="244" y="-382.95" font-family="Times New Roman,serif" font-size="14.00">5</text>
</g>
<!-- 4&#45;&gt;5 -->
<g id="edge8" class="edge">
<title>4&#45;&gt;5</title>
<path fill="none" stroke="black" d="M302.55,-460.66C297.04,-454.49 290.64,-447.21 285,-440.5 277.66,-431.76 269.81,-422 262.96,-413.35"/>
<polygon fill="black" stroke="black" points="265.86,-411.38 256.93,-405.68 260.36,-415.71 265.86,-411.38"/>
<text xml:space="preserve" text-anchor="middle" x="307.5" y="-427.2" font-family="Times New Roman,serif" font-size="14.00">to_inner</text>
</g>
<!-- 5&#45;&gt;5 -->
<g id="edge11" class="edge">
<title>5&#45;&gt;5</title>
<path fill="none" stroke="black" d="M268.53,-396.17C279.51,-396.95 289,-394.22 289,-388 289,-384.11 285.29,-381.59 279.83,-380.43"/>
<polygon fill="black" stroke="black" points="280.22,-376.95 270.04,-379.91 279.84,-383.94 280.22,-376.95"/>
<text xml:space="preserve" text-anchor="middle" x="324.62" y="-382.95" font-family="Times New Roman,serif" font-size="14.00">no_transition</text>
</g>
<!-- 6 -->
<g id="node8" class="node">
<title>6</title>
<ellipse fill="none" stroke="black" cx="264" cy="-122.5" rx="27" ry="18"/>
<text xml:space="preserve" text-anchor="middle" x="264" y="-117.45" font-family="Times New Roman,serif" font-size="14.00">6</text>
</g>
<!-- 5&#45;&gt;6 -->
<g id="edge9" class="edge">
<title>5&#45;&gt;6</title>
<path fill="none" stroke="black" d="M238.6,-369.99C228.59,-335.74 209.75,-256.32 228,-193 232.41,-177.7 240.33,-161.84 247.61,-149.15"/>
<polygon fill="black" stroke="black" points="250.59,-150.98 252.72,-140.6 244.58,-147.39 250.59,-150.98"/>
<text xml:space="preserve" text-anchor="middle" x="240.77" y="-250.2" font-family="Times New Roman,serif" font-size="14.00">to_pass</text>
</g>
<!-- 8 -->
<g id="node9" class="node">
<title>8</title>
<ellipse fill="none" stroke="black" cx="273" cy="-299.5" rx="27" ry="18"/>
<text xml:space="preserve" text-anchor="middle" x="273" y="-294.45" font-family="Times New Roman,serif" font-size="14.00">8</text>
</g>
<!-- 5&#45;&gt;8 -->
<g id="edge10" class="edge">
<title>5&#45;&gt;8</title>
<path fill="none" stroke="black" d="M249.73,-369.91C253.7,-358.06 259.08,-342.02 263.67,-328.34"/>
<polygon fill="black" stroke="black" points="266.94,-329.58 266.8,-318.99 260.3,-327.36 266.94,-329.58"/>
<text xml:space="preserve" text-anchor="middle" x="278.72" y="-338.7" font-family="Times New Roman,serif" font-size="14.00">to_fail</text>
</g>
<!-- 7 -->
<g id="node10" class="node">
<title>7</title>
<ellipse fill="none" stroke="black" cx="274" cy="-34" rx="27" ry="18"/>
<text xml:space="preserve" text-anchor="middle" x="274" y="-28.95" font-family="Times New Roman,serif" font-size="14.00">7</text>
</g>
<!-- 6&#45;&gt;7 -->
<g id="edge12" class="edge">
<title>6&#45;&gt;7</title>
<path fill="none" stroke="black" d="M265.98,-104.41C267.32,-92.76 269.14,-77.05 270.7,-63.52"/>
<polygon fill="black" stroke="black" points="274.15,-64.19 271.82,-53.85 267.2,-63.39 274.15,-64.19"/>
<text xml:space="preserve" text-anchor="middle" x="292.4" y="-73.2" font-family="Times New Roman,serif" font-size="14.00">to_inner</text>
</g>
<!-- 9 -->
<g id="node11" class="node">
<title>9</title>
<ellipse fill="none" stroke="black" cx="264" cy="-211" rx="27" ry="18"/>
<text xml:space="preserve" text-anchor="middle" x="264" y="-205.95" font-family="Times New Roman,serif" font-size="14.00">9</text>
</g>
<!-- 8&#45;&gt;9 -->
<g id="edge15" class="edge">
<title>8&#45;&gt;9</title>
<path fill="none" stroke="black" d="M271.22,-281.41C270.01,-269.76 268.37,-254.05 266.97,-240.52"/>
<polygon fill="black" stroke="black" points="270.48,-240.44 265.96,-230.86 263.52,-241.16 270.48,-240.44"/>
<text xml:space="preserve" text-anchor="middle" x="291.81" y="-250.2" font-family="Times New Roman,serif" font-size="14.00">to_inner</text>
</g>
<!-- 7&#45;&gt;0 -->
<g id="edge13" class="edge">
<title>7&#45;&gt;0</title>
<path fill="none" stroke="black" d="M299.6,-40.54C336.17,-50.14 399,-73.6 399,-121.5 399,-344.75 399,-344.75 399,-344.75 399,-442.19 399,-466.56 399,-564 399,-743 399,-743 399,-743 399,-837.7 384.71,-949.31 377.32,-1000.71"/>
<polygon fill="black" stroke="black" points="373.89,-999.98 375.9,-1010.38 380.82,-1000.99 373.89,-999.98"/>
<text xml:space="preserve" text-anchor="middle" x="419.25" y="-427.2" font-family="Times New Roman,serif" font-size="14.00">to_next</text>
</g>
<!-- 7&#45;&gt;7 -->
<g id="edge14" class="edge">
<title>7&#45;&gt;7</title>
<path fill="none" stroke="black" d="M298.53,-42.17C309.51,-42.95 319,-40.22 319,-34 319,-30.11 315.29,-27.59 309.83,-26.43"/>
<polygon fill="black" stroke="black" points="310.22,-22.95 300.04,-25.91 309.84,-29.94 310.22,-22.95"/>
<text xml:space="preserve" text-anchor="middle" x="354.62" y="-28.95" font-family="Times New Roman,serif" font-size="14.00">no_transition</text>
</g>
<!-- 9&#45;&gt;0 -->
<g id="edge17" class="edge">
<title>9&#45;&gt;0</title>
<path fill="none" stroke="black" d="M285.73,-222.12C296.61,-228.09 309.28,-236.53 318,-247 355.87,-292.48 357.44,-311.96 369,-370 372.12,-385.69 376.78,-392.02 369,-406 361.63,-419.26 347.37,-410.74 340,-424 336.44,-430.41 337.87,-433.48 340,-440.5 342.79,-449.7 348.78,-449.44 352,-458.5 362.55,-488.16 351.29,-498.42 358.75,-529 360.79,-537.38 363.68,-538.69 366,-547 373.42,-573.57 376,-580.67 376,-608.25 376,-743 376,-743 376,-743 376,-837.32 374.35,-949.11 373.5,-1000.64"/>
<polygon fill="black" stroke="black" points="370,-1000.25 373.34,-1010.31 377,-1000.37 370,-1000.25"/>
<text xml:space="preserve" text-anchor="middle" x="376.38" y="-515.7" font-family="Times New Roman,serif" font-size="14.00">to_fail</text>
</g>
<!-- 9&#45;&gt;6 -->
<g id="edge16" class="edge">
<title>9&#45;&gt;6</title>
<path fill="none" stroke="black" d="M264,-192.91C264,-181.26 264,-165.55 264,-152.02"/>
<polygon fill="black" stroke="black" points="267.5,-152.36 264,-142.36 260.5,-152.36 267.5,-152.36"/>
<text xml:space="preserve" text-anchor="middle" x="284.25" y="-161.7" font-family="Times New Roman,serif" font-size="14.00">to_pass</text>
</g>
<!-- 9&#45;&gt;9 -->
<g id="edge18" class="edge">
<title>9&#45;&gt;9</title>
<path fill="none" stroke="black" d="M288.53,-219.17C299.51,-219.95 309,-217.22 309,-211 309,-207.11 305.29,-204.59 299.83,-203.43"/>
<polygon fill="black" stroke="black" points="300.22,-199.95 290.04,-202.91 299.84,-206.94 300.22,-199.95"/>
<text xml:space="preserve" text-anchor="middle" x="344.62" y="-205.95" font-family="Times New Roman,serif" font-size="14.00">no_transition</text>
</g>
<!-- 12 -->
<g id="node13" class="node">
<title>12</title>
<ellipse fill="none" stroke="black" cx="63" cy="-476.5" rx="27" ry="18"/>
<text xml:space="preserve" text-anchor="middle" x="63" y="-471.45" font-family="Times New Roman,serif" font-size="14.00">12</text>
</g>
<!-- 11&#45;&gt;12 -->
<g id="edge20" class="edge">
<title>11&#45;&gt;12</title>
<path fill="none" stroke="black" d="M109.62,-556.97C95.59,-551.62 78.92,-542.78 69.5,-529 64.92,-522.3 62.76,-513.95 61.88,-505.93"/>
<polygon fill="black" stroke="black" points="65.39,-505.99 61.45,-496.16 58.39,-506.31 65.39,-505.99"/>
<text xml:space="preserve" text-anchor="middle" x="106.25" y="-515.7" font-family="Times New Roman,serif" font-size="14.00">to_find_word</text>
</g>
<!-- 18 -->
<g id="node14" class="node">
<title>18</title>
<ellipse fill="none" stroke="black" cx="224" cy="-476.5" rx="27" ry="18"/>
<text xml:space="preserve" text-anchor="middle" x="224" y="-471.45" font-family="Times New Roman,serif" font-size="14.00">18</text>
</g>
<!-- 11&#45;&gt;18 -->
<g id="edge21" class="edge">
<title>11&#45;&gt;18</title>
<path fill="none" stroke="black" d="M142.17,-547.83C148.21,-536.97 157.2,-522.81 167.75,-512.5 175.08,-505.34 184.13,-498.92 192.8,-493.6"/>
<polygon fill="black" stroke="black" points="194.48,-496.67 201.38,-488.63 190.98,-490.61 194.48,-496.67"/>
<text xml:space="preserve" text-anchor="middle" x="215.38" y="-515.7" font-family="Times New Roman,serif" font-size="14.00">to_no_words_left</text>
</g>
<!-- 12&#45;&gt;12 -->
<g id="edge23" class="edge">
<title>12&#45;&gt;12</title>
<path fill="none" stroke="black" d="M87.53,-484.67C98.51,-485.45 108,-482.72 108,-476.5 108,-472.61 104.29,-470.09 98.83,-468.93"/>
<polygon fill="black" stroke="black" points="99.22,-465.45 89.04,-468.41 98.84,-472.44 99.22,-465.45"/>
<text xml:space="preserve" text-anchor="middle" x="143.62" y="-471.45" font-family="Times New Roman,serif" font-size="14.00">no_transition</text>
</g>
<!-- 13 -->
<g id="node15" class="node">
<title>13</title>
<ellipse fill="none" stroke="black" cx="63" cy="-388" rx="27" ry="18"/>
<text xml:space="preserve" text-anchor="middle" x="63" y="-382.95" font-family="Times New Roman,serif" font-size="14.00">13</text>
</g>
<!-- 12&#45;&gt;13 -->
<g id="edge22" class="edge">
<title>12&#45;&gt;13</title>
<path fill="none" stroke="black" d="M63,-458.41C63,-446.76 63,-431.05 63,-417.52"/>
<polygon fill="black" stroke="black" points="66.5,-417.86 63,-407.86 59.5,-417.86 66.5,-417.86"/>
<text xml:space="preserve" text-anchor="middle" x="112.88" y="-427.2" font-family="Times New Roman,serif" font-size="14.00">to_find_word_end</text>
</g>
<!-- 13&#45;&gt;13 -->
<g id="edge25" class="edge">
<title>13&#45;&gt;13</title>
<path fill="none" stroke="black" d="M87.53,-396.17C98.51,-396.95 108,-394.22 108,-388 108,-384.11 104.29,-381.59 98.83,-380.43"/>
<polygon fill="black" stroke="black" points="99.22,-376.95 89.04,-379.91 98.84,-383.94 99.22,-376.95"/>
<text xml:space="preserve" text-anchor="middle" x="143.62" y="-382.95" font-family="Times New Roman,serif" font-size="14.00">no_transition</text>
</g>
<!-- 14 -->
<g id="node16" class="node">
<title>14</title>
<ellipse fill="none" stroke="black" cx="91" cy="-299.5" rx="27" ry="18"/>
<text xml:space="preserve" text-anchor="middle" x="91" y="-294.45" font-family="Times New Roman,serif" font-size="14.00">14</text>
</g>
<!-- 13&#45;&gt;14 -->
<g id="edge24" class="edge">
<title>13&#45;&gt;14</title>
<path fill="none" stroke="black" d="M69.46,-370.35C71.63,-364.57 74,-358.03 76,-352 78.53,-344.37 81.05,-336.03 83.29,-328.32"/>
<polygon fill="black" stroke="black" points="86.65,-329.33 86.02,-318.75 79.92,-327.41 86.65,-329.33"/>
<text xml:space="preserve" text-anchor="middle" x="101.12" y="-338.7" font-family="Times New Roman,serif" font-size="14.00">to_next</text>
</g>
<!-- 15 -->
<g id="node17" class="node">
<title>15</title>
<ellipse fill="none" stroke="black" cx="83" cy="-211" rx="27" ry="18"/>
<text xml:space="preserve" text-anchor="middle" x="83" y="-205.95" font-family="Times New Roman,serif" font-size="14.00">15</text>
</g>
<!-- 14&#45;&gt;15 -->
<g id="edge26" class="edge">
<title>14&#45;&gt;15</title>
<path fill="none" stroke="black" d="M89.42,-281.41C88.34,-269.76 86.89,-254.05 85.64,-240.52"/>
<polygon fill="black" stroke="black" points="89.15,-240.49 84.74,-230.86 82.18,-241.14 89.15,-240.49"/>
<text xml:space="preserve" text-anchor="middle" x="110.22" y="-250.2" font-family="Times New Roman,serif" font-size="14.00">to_inner</text>
</g>
<!-- 15&#45;&gt;10 -->
<g id="edge28" class="edge">
<title>15&#45;&gt;10</title>
<path fill="none" stroke="black" d="M104.61,-222.22C115.46,-228.21 128.14,-236.64 137,-247 187.32,-305.8 169.47,-338.88 208,-406 217.4,-422.37 219.15,-427.42 232.75,-440.5 243.21,-450.56 252.77,-445.91 260,-458.5 281.17,-495.36 270.8,-518.41 263,-529 246.99,-550.73 224.1,-527.93 205,-547 181.77,-570.19 202.25,-590.91 183,-617.5 178.03,-624.37 171.29,-630.4 164.4,-635.43"/>
<polygon fill="black" stroke="black" points="162.69,-632.36 156.32,-640.82 166.58,-638.18 162.69,-632.36"/>
<text xml:space="preserve" text-anchor="middle" x="250.38" y="-427.2" font-family="Times New Roman,serif" font-size="14.00">to_fail</text>
</g>
<!-- 15&#45;&gt;15 -->
<g id="edge29" class="edge">
<title>15&#45;&gt;15</title>
<path fill="none" stroke="black" d="M107.53,-219.17C118.51,-219.95 128,-217.22 128,-211 128,-207.11 124.29,-204.59 118.83,-203.43"/>
<polygon fill="black" stroke="black" points="119.22,-199.95 109.04,-202.91 118.84,-206.94 119.22,-199.95"/>
<text xml:space="preserve" text-anchor="middle" x="163.62" y="-205.95" font-family="Times New Roman,serif" font-size="14.00">no_transition</text>
</g>
<!-- 16 -->
<g id="node18" class="node">
<title>16</title>
<ellipse fill="none" stroke="black" cx="81" cy="-122.5" rx="27" ry="18"/>
<text xml:space="preserve" text-anchor="middle" x="81" y="-117.45" font-family="Times New Roman,serif" font-size="14.00">16</text>
</g>
<!-- 15&#45;&gt;16 -->
<g id="edge27" class="edge">
<title>15&#45;&gt;16</title>
<path fill="none" stroke="black" d="M82.6,-192.91C82.34,-181.26 81.97,-165.55 81.66,-152.02"/>
<polygon fill="black" stroke="black" points="85.17,-152.28 81.44,-142.36 78.17,-152.44 85.17,-152.28"/>
<text xml:space="preserve" text-anchor="middle" x="102.43" y="-161.7" font-family="Times New Roman,serif" font-size="14.00">to_pass</text>
</g>
<!-- 17 -->
<g id="node19" class="node">
<title>17</title>
<ellipse fill="none" stroke="black" cx="57" cy="-34" rx="27" ry="18"/>
<text xml:space="preserve" text-anchor="middle" x="57" y="-28.95" font-family="Times New Roman,serif" font-size="14.00">17</text>
</g>
<!-- 16&#45;&gt;17 -->
<g id="edge30" class="edge">
<title>16&#45;&gt;17</title>
<path fill="none" stroke="black" d="M76.26,-104.41C72.97,-92.56 68.52,-76.52 64.73,-62.84"/>
<polygon fill="black" stroke="black" points="68.18,-62.21 62.14,-53.51 61.44,-64.08 68.18,-62.21"/>
<text xml:space="preserve" text-anchor="middle" x="93.65" y="-73.2" font-family="Times New Roman,serif" font-size="14.00">to_inner</text>
</g>
<!-- 17&#45;&gt;10 -->
<g id="edge31" class="edge">
<title>17&#45;&gt;10</title>
<path fill="none" stroke="black" d="M49.85,-51.56C43.1,-68.72 34,-96.48 34,-121.5 34,-300.5 34,-300.5 34,-300.5 34,-329.8 17,-401.95 17,-431.25 17,-566 17,-566 17,-566 17,-606.92 63.84,-630.68 98.24,-642.62"/>
<polygon fill="black" stroke="black" points="96.87,-645.86 107.46,-645.62 99.03,-639.2 96.87,-645.86"/>
<text xml:space="preserve" text-anchor="middle" x="50.58" y="-338.7" font-family="Times New Roman,serif" font-size="14.00">to_next</text>
</g>
<!-- 17&#45;&gt;17 -->
<g id="edge32" class="edge">
<title>17&#45;&gt;17</title>
<path fill="none" stroke="black" d="M81.53,-42.17C92.51,-42.95 102,-40.22 102,-34 102,-30.11 98.29,-27.59 92.83,-26.43"/>
<polygon fill="black" stroke="black" points="93.22,-22.95 83.04,-25.91 92.84,-29.94 93.22,-22.95"/>
<text xml:space="preserve" text-anchor="middle" x="137.62" y="-28.95" font-family="Times New Roman,serif" font-size="14.00">no_transition</text>
</g>
<!-- all_node -->
<g id="node20" class="node">
<title>all_node</title>
<polygon fill="none" stroke="black" points="432.12,-1221.5 432.12,-1244 1203.88,-1244 1203.88,-1221.5 432.12,-1221.5"/>
<text xml:space="preserve" text-anchor="start" x="435.12" y="-1227.7" font-family="Times New Roman,serif" font-size="14.00"> 0 &#45;&#45; main.Words((function &#39;CapsFsm&#39;),main.Context,.string1_ctx).IterateWords((function &#39;CapitalizeUnderscoreOrPalindromeWord&#39;),{10}) </text>
<polygon fill="none" stroke="black" points="432.12,-1199 432.12,-1221.5 1203.88,-1221.5 1203.88,-1199 432.12,-1199"/>
<text xml:space="preserve" text-anchor="start" x="435.12" y="-1205.2" font-family="Times New Roman,serif" font-size="14.00"> 1 &#45;&#45; main.Words((function &#39;CapsFsm&#39;),main.Context,.string1_ctx).IterateWordsInner({4},{10}) </text>
<polygon fill="none" stroke="black" points="432.12,-1176.5 432.12,-1199 1203.88,-1199 1203.88,-1176.5 432.12,-1176.5"/>
<text xml:space="preserve" text-anchor="start" x="435.12" y="-1182.7" font-family="Times New Roman,serif" font-size="14.00"> 2 &#45;&#45; main.Words((function &#39;CapsFsm&#39;),main.Context,.string1_ctx).FindWord({4}) </text>
<polygon fill="none" stroke="black" points="432.12,-1154 432.12,-1176.5 1203.88,-1176.5 1203.88,-1154 432.12,-1154"/>
<text xml:space="preserve" text-anchor="start" x="435.12" y="-1160.2" font-family="Times New Roman,serif" font-size="14.00"> 3 &#45;&#45; main.Words((function &#39;CapsFsm&#39;),main.Context,.string1_ctx).FindWordEnd({4}) </text>
<polygon fill="none" stroke="black" points="432.12,-1131.5 432.12,-1154 1203.88,-1154 1203.88,-1131.5 432.12,-1131.5"/>
<text xml:space="preserve" text-anchor="start" x="435.12" y="-1137.7" font-family="Times New Roman,serif" font-size="14.00"> 4 &#45;&#45; main.Words((function &#39;CapsFsm&#39;),main.Context,.string1_ctx).CharFilter({6},{8},(function &#39;isUnderscore&#39;)) </text>
<polygon fill="none" stroke="black" points="432.12,-1109 432.12,-1131.5 1203.88,-1131.5 1203.88,-1109 432.12,-1109"/>
<text xml:space="preserve" text-anchor="start" x="435.12" y="-1115.2" font-family="Times New Roman,serif" font-size="14.00"> 5 &#45;&#45; main.Words((function &#39;CapsFsm&#39;),main.Context,.string1_ctx).CharFilterInner({6},{8},(function &#39;isUnderscore&#39;)) </text>
<polygon fill="none" stroke="black" points="432.12,-1086.5 432.12,-1109 1203.88,-1109 1203.88,-1086.5 432.12,-1086.5"/>
<text xml:space="preserve" text-anchor="start" x="435.12" y="-1092.7" font-family="Times New Roman,serif" font-size="14.00"> 6 &#45;&#45; main.Words((function &#39;CapsFsm&#39;),main.Context,.string1_ctx).CharMutation({0},(function &#39;capitalize&#39;)) </text>
<polygon fill="none" stroke="black" points="432.12,-1064 432.12,-1086.5 1203.88,-1086.5 1203.88,-1064 432.12,-1064"/>
<text xml:space="preserve" text-anchor="start" x="435.12" y="-1070.2" font-family="Times New Roman,serif" font-size="14.00"> 7 &#45;&#45; main.Words((function &#39;CapsFsm&#39;),main.Context,.string1_ctx).CharMutationInner({0},(function &#39;capitalize&#39;)) </text>
<polygon fill="none" stroke="black" points="432.12,-1041.5 432.12,-1064 1203.88,-1064 1203.88,-1041.5 432.12,-1041.5"/>
<text xml:space="preserve" text-anchor="start" x="435.12" y="-1047.7" font-family="Times New Roman,serif" font-size="14.00"> 8 &#45;&#45; main.Words((function &#39;CapsFsm&#39;),main.Context,.string1_ctx).PalindromeFilter({6},{0}) </text>
<polygon fill="none" stroke="black" points="432.12,-1019 432.12,-1041.5 1203.88,-1041.5 1203.88,-1019 432.12,-1019"/>
<text xml:space="preserve" text-anchor="start" x="435.12" y="-1025.2" font-family="Times New Roman,serif" font-size="14.00"> 9 &#45;&#45; main.Words((function &#39;CapsFsm&#39;),main.Context,.string1_ctx).PalindromeFilterInner({6},{0}) </text>
<polygon fill="none" stroke="black" points="432.12,-996.5 432.12,-1019 1203.88,-1019 1203.88,-996.5 432.12,-996.5"/>
<text xml:space="preserve" text-anchor="start" x="435.12" y="-1002.7" font-family="Times New Roman,serif" font-size="14.00"> 10 &#45;&#45; main.Words((function &#39;CapsFsm&#39;),main.Context,.string2_ctx).IterateWords((function &#39;ReverseWordWithVowel&#39;),{18}) </text>
<polygon fill="none" stroke="black" points="432.12,-974 432.12,-996.5 1203.88,-996.5 1203.88,-974 432.12,-974"/>
<text xml:space="preserve" text-anchor="start" x="435.12" y="-980.2" font-family="Times New Roman,serif" font-size="14.00"> 11 &#45;&#45; main.Words((function &#39;CapsFsm&#39;),main.Context,.string2_ctx).IterateWordsInner({14},{18}) </text>
<polygon fill="none" stroke="black" points="432.12,-951.5 432.12,-974 1203.88,-974 1203.88,-951.5 432.12,-951.5"/>
<text xml:space="preserve" text-anchor="start" x="435.12" y="-957.7" font-family="Times New Roman,serif" font-size="14.00"> 12 &#45;&#45; main.Words((function &#39;CapsFsm&#39;),main.Context,.string2_ctx).FindWord({14}) </text>
<polygon fill="none" stroke="black" points="432.12,-929 432.12,-951.5 1203.88,-951.5 1203.88,-929 432.12,-929"/>
<text xml:space="preserve" text-anchor="start" x="435.12" y="-935.2" font-family="Times New Roman,serif" font-size="14.00"> 13 &#45;&#45; main.Words((function &#39;CapsFsm&#39;),main.Context,.string2_ctx).FindWordEnd({14}) </text>
<polygon fill="none" stroke="black" points="432.12,-906.5 432.12,-929 1203.88,-929 1203.88,-906.5 432.12,-906.5"/>
<text xml:space="preserve" text-anchor="start" x="435.12" y="-912.7" font-family="Times New Roman,serif" font-size="14.00"> 14 &#45;&#45; main.Words((function &#39;CapsFsm&#39;),main.Context,.string2_ctx).CharFilter({16},{10},(function &#39;isVowel&#39;)) </text>
<polygon fill="none" stroke="black" points="432.12,-884 432.12,-906.5 1203.88,-906.5 1203.88,-884 432.12,-884"/>
<text xml:space="preserve" text-anchor="start" x="435.12" y="-890.2" font-family="Times New Roman,serif" font-size="14.00"> 15 &#45;&#45; main.Words((function &#39;CapsFsm&#39;),main.Context,.string2_ctx).CharFilterInner({16},{10},(function &#39;isVowel&#39;)) </text>
<polygon fill="none" stroke="black" points="432.12,-861.5 432.12,-884 1203.88,-884 1203.88,-861.5 432.12,-861.5"/>
<text xml:space="preserve" text-anchor="start" x="435.12" y="-867.7" font-family="Times New Roman,serif" font-size="14.00"> 16 &#45;&#45; main.Words((function &#39;CapsFsm&#39;),main.Context,.string2_ctx).Reverse({10}) </text>
<polygon fill="none" stroke="black" points="432.12,-839 432.12,-861.5 1203.88,-861.5 1203.88,-839 432.12,-839"/>
<text xml:space="preserve" text-anchor="start" x="435.12" y="-845.2" font-family="Times New Roman,serif" font-size="14.00"> 17 &#45;&#45; main.Words((function &#39;CapsFsm&#39;),main.Context,.string2_ctx).ReverseInner({10}) </text>
<polygon fill="none" stroke="black" points="432.12,-816.5 432.12,-839 1203.88,-839 1203.88,-816.5 432.12,-816.5"/>
<text xml:space="preserve" text-anchor="start" x="435.12" y="-822.7" font-family="Times New Roman,serif" font-size="14.00"> 18 &#45;&#45; polystate.Exit </text>
</g>
</g>
</svg>
